<?xml version="1.0" encoding="utf-8"?>
<!-- Uploaded to: SVG Repo, www.svgrepo.com, Generator: SVG Repo Mixer Tools -->
<svg width="800px" height="800px" viewBox="0 -18.39 123.68 123.68" xmlns="http://www.w3.org/2000/svg">
<g transform="translate(-546.66 -563.46)">
<line y1="48.06" transform="translate(548.16 584.81)" stroke-width="3" stroke="#000000" stroke-linecap="round" stroke-linejoin="round" fill="none"/>
<line y2="48.06" transform="translate(668.84 584.81)" stroke-width="3" stroke="#000000" stroke-linecap="round" stroke-linejoin="round" fill="none"/>
<path d="M548.16,632.87c0,6.37,9.117,12.04,23.292,15.67" fill="none" stroke="#000000" stroke-linecap="round" stroke-linejoin="round" stroke-width="3"/>
<path d="M645.547,617.21a165.965,165.965,0,0,0-73.917-.045" fill="none" stroke="#000000" stroke-linecap="round" stroke-linejoin="round" stroke-width="3"/>
<path d="M645.547,648.54c14.176-3.63,23.293-9.3,23.293-15.67" fill="none" stroke="#000000" stroke-linecap="round" stroke-linejoin="round" stroke-width="3"/>
<path d="M645.547,600.48c14.176-3.63,23.293-9.3,23.293-15.67s-9.117-12.04-23.293-15.66a165.88,165.88,0,0,0-74.095,0c-14.175,3.62-23.292,9.29-23.292,15.66s9.117,12.04,23.292,15.67" fill="none" stroke="#000000" stroke-linecap="round" stroke-linejoin="round" stroke-width="3"/>
<path d="M668.84,584.81c0-10.96-26.97-19.85-60.23-19.85s-60.45,8.89-60.45,19.85" fill="none" stroke="#000000" stroke-linecap="round" stroke-linejoin="round" stroke-width="3"/>
<line y2="48.06" transform="translate(645.59 600.48)" stroke-width="3" stroke="#000000" stroke-linecap="round" stroke-linejoin="round" fill="none"/>
<line y2="48.06" transform="translate(571.63 600.48)" stroke-width="3" stroke="#000000" stroke-linecap="round" stroke-linejoin="round" fill="none"/>
<path d="M580.2,581.43H591v10.8H580.2" fill="none" stroke="#000000" stroke-linecap="round" stroke-linejoin="round" stroke-width="3"/>
<path d="M580.2,592.233H591v10.8H580.2" fill="none" stroke="#000000" stroke-linecap="round" stroke-linejoin="round" stroke-width="3"/>
<path d="M608.2,592.233h-10.8v-10.8h10.8" fill="none" stroke="#000000" stroke-linecap="round" stroke-linejoin="round" stroke-width="3"/>
<rect width="10.803" height="10.803" transform="translate(597.393 592.233)" stroke-width="3" stroke="#000000" stroke-linecap="round" stroke-linejoin="round" fill="none"/>
<path d="M625.387,592.233v10.8h-10.8V581.43h10.8Z" fill="none" stroke="#000000" stroke-linecap="round" stroke-linejoin="round" stroke-width="3"/>
<path d="M639.653,584.986a3.556,3.556,0,1,1-3.556-3.556A3.557,3.557,0,0,1,639.653,584.986Z" fill="none" stroke="#000000" stroke-linecap="round" stroke-linejoin="round" stroke-width="3"/>
<path d="M582.806,627.378l5.832,11.729,5.832-11.729" fill="none" stroke="#000000" stroke-linecap="round" stroke-linejoin="round" stroke-width="3"/>
<path d="M615.3,627.378l5.832,11.729,3.615-7.271" fill="none" stroke="#000000" stroke-linecap="round" stroke-linejoin="round" stroke-width="3"/>
<path d="M622.53,627.378l5.832,11.729,5.832-11.729" fill="none" stroke="#000000" stroke-linecap="round" stroke-linejoin="round" stroke-width="3"/>
<line y2="11.729" transform="translate(599.282 627.378)" stroke-width="3" stroke="#000000" stroke-linecap="round" stroke-linejoin="round" fill="none"/>
<path d="M610.726,627.378h-6.508v11.729h6.508" fill="none" stroke="#000000" stroke-linecap="round" stroke-linejoin="round" stroke-width="3"/>
<line x1="4.675" transform="translate(604.218 633.242)" stroke-width="3" stroke="#000000" stroke-linecap="round" stroke-linejoin="round" fill="none"/>
</g>
</svg>