<svg fill="none" height="15" viewBox="0 0 15 15" width="15" xmlns="http://www.w3.org/2000/svg"><path clip-rule="evenodd" d="m8.59806 2.00971c.27078.05416.44639.31757.39223.58835l-2 10.00004c-.05416.2707-.31757.4464-.58835.3922s-.44639-.3176-.39223-.5884l2-9.99995c.05416-.27078.31757-.44639.58835-.39224zm-3.74451 2.13674c.19527.19526.19527.51185 0 .70711l-2.64644 2.64644 2.64644 2.6465c.19527.1952.19527.5118 0 .7071-.19526.1952-.51184.1952-.7071 0l-3-3.00004c-.195266-.19526-.195266-.51185 0-.70711l3-3c.19526-.19526.51184-.19526.7071 0zm5.29285 0c.1953-.19526.5119-.19526.7072 0l3 3c.1952.19526.1952.51185 0 .70711l-3 3.00004c-.1953.1952-.5119.1952-.7072 0-.19522-.1953-.19522-.5119 0-.7071l2.6465-2.6465-2.6465-2.64644c-.19522-.19526-.19522-.51185 0-.70711z" fill="#151515" fill-rule="evenodd"/></svg>