<?xml version="1.0" encoding="utf-8"?>
<!-- Uploaded to: SVG Repo, www.svgrepo.com, Generator: SVG Repo Mixer Tools -->
<svg width="800px" height="800px" viewBox="-0.95 0 117.858 117.858" xmlns="http://www.w3.org/2000/svg">
<g transform="translate(-33.522 -376.821)">
<path d="M62.649,430.7a18.075,18.075,0,0,0,2.809,8.7l5.192,8.124a19.482,19.482,0,0,0,16.415,8.991h8.869a19.481,19.481,0,0,0,16.415-8.991l5.193-8.124a18.084,18.084,0,0,0,2.808-8.7" fill="none" stroke="#000000" stroke-linecap="round" stroke-linejoin="round" stroke-width="3"/>
<path d="M62.85,399.275a24.227,24.227,0,0,1,24.018-20.954h9.273a24.226,24.226,0,0,1,24.009,20.954" fill="none" stroke="#000000" stroke-linecap="round" stroke-linejoin="round" stroke-width="3"/>
<path d="M57.446,402.162v25.429a2.891,2.891,0,0,0,2.639,2.88l16.157,1.414a6.482,6.482,0,0,0,5.263-1.993l6.588-6.934a4.7,4.7,0,0,1,6.814,0l6.588,6.934a6.48,6.48,0,0,0,5.263,1.993l16.157-1.414a2.891,2.891,0,0,0,2.639-2.88V402.162a2.892,2.892,0,0,0-2.891-2.891H60.337A2.891,2.891,0,0,0,57.446,402.162Z" fill="none" stroke="#000000" stroke-linecap="round" stroke-linejoin="round" stroke-width="3"/>
<path d="M115,405.281H68a3.087,3.087,0,1,0,0,6.175H115a3.087,3.087,0,1,0,0-6.175Z" fill="none" stroke="#000000" stroke-linecap="round" stroke-linejoin="round" stroke-width="3"/>
<path d="M53.432,408.369a.518.518,0,0,0-.518.518V422.9a.518.518,0,0,0,.518.518h4.014V408.369Z" fill="none" stroke="#000000" stroke-linecap="round" stroke-linejoin="round" stroke-width="3"/>
<path d="M129.568,423.422a.518.518,0,0,0,.518-.518V408.887a.518.518,0,0,0-.518-.518h-4.014v15.053Z" fill="none" stroke="#000000" stroke-linecap="round" stroke-linejoin="round" stroke-width="3"/>
<path d="M75.65,452.923v9.79a4.222,4.222,0,0,1-2.755,3.958l-29.946,11.1a12.148,12.148,0,0,0-7.927,11.391v4.021H147.978v-4.021a12.148,12.148,0,0,0-7.927-11.391l-29.946-11.1a4.222,4.222,0,0,1-2.755-3.958v-9.79" fill="none" stroke="#000000" stroke-linecap="round" stroke-linejoin="round" stroke-width="3"/>
</g>
</svg>